<?xml version="1.0" encoding="UTF-8" standalone="no"?>
<!-- (c) ammap.com | SVG weather icons -->

<svg
   width="56"
   height="48"
   version="1.1"
   viewBox="0 0 56 48"
   id="svg216"
   sodipodi:docname="01n.svg"
   inkscape:version="1.2.2 (b0a8486541, 2022-12-01)"
   xmlns:inkscape="http://www.inkscape.org/namespaces/inkscape"
   xmlns:sodipodi="http://sodipodi.sourceforge.net/DTD/sodipodi-0.dtd"
   xmlns="http://www.w3.org/2000/svg"
   xmlns:svg="http://www.w3.org/2000/svg">
  <sodipodi:namedview
     id="namedview218"
     pagecolor="#ffffff"
     bordercolor="#000000"
     borderopacity="0.25"
     inkscape:showpageshadow="2"
     inkscape:pageopacity="0.0"
     inkscape:pagecheckerboard="0"
     inkscape:deskcolor="#d1d1d1"
     showgrid="false"
     inkscape:zoom="3.8522588"
     inkscape:cx="-18.820127"
     inkscape:cy="21.805388"
     inkscape:window-width="1366"
     inkscape:window-height="708"
     inkscape:window-x="-1"
     inkscape:window-y="-1"
     inkscape:window-maximized="1"
     inkscape:current-layer="svg216" />
  <defs
     id="defs198">
    <filter
       id="blur"
       x="-0.37974684"
       y="-0.41474654"
       width="1.7594937"
       height="2.1059908">
      <feGaussianBlur
         in="SourceAlpha"
         stdDeviation="3"
         id="feGaussianBlur183" />
      <feOffset
         dx="0"
         dy="4"
         result="offsetblur"
         id="feOffset185" />
      <feComponentTransfer
         id="feComponentTransfer189">
        <feFuncA
           slope="0.05"
           type="linear"
           id="feFuncA187" />
      </feComponentTransfer>
      <feMerge
         id="feMerge195">
        <feMergeNode
           id="feMergeNode191" />
        <feMergeNode
           in="SourceGraphic"
           id="feMergeNode193" />
      </feMerge>
    </filter>
  </defs>
  <g
     transform="translate(2.8000004,8.4000002)"
     filter="url(#blur)"
     id="g214">
    <g
       transform="matrix(0.8,0,0,0.8,14,4)"
       id="g212">
      <g
         class="am-weather-moon-star-1"
         id="g202">
        <polygon
           points="2.7,4 1.5,3.3 2.7,2.7 3.3,1.5 4,2.7 5.2,3.3 4,4 3.3,5.2 "
           fill="#ffa500"
           stroke-miterlimit="10"
           id="polygon200" />
      </g>
      <g
         class="am-weather-moon-star-2"
         id="g206">
        <polygon
           transform="translate(20,10)"
           points="2.7,4 1.5,3.3 2.7,2.7 3.3,1.5 4,2.7 5.2,3.3 4,4 3.3,5.2 "
           fill="#ffa500"
           stroke-miterlimit="10"
           id="polygon204" />
      </g>
      <g
         class="am-weather-moon"
         id="g210">
        <path
           d="m 14.5,13.2 c 0,-3.7 2,-6.9 5,-8.7 -1.5,-0.9 -3.2,-1.3 -5,-1.3 -5.5,0 -10,4.5 -10,10 0,5.5 4.5,10 10,10 1.8,0 3.5,-0.5 5,-1.3 -3,-1.7 -5,-5 -5,-8.7 z"
           fill="#ffa500"
           stroke="#ffa500"
           stroke-linejoin="round"
           stroke-width="2"
           id="path208" />
      </g>
    </g>
  </g>
</svg>
